<svg xmlns="http://www.w3.org/2000/svg" width="1180" height="980" viewBox="0 0 1180 980">
<rect width="1180" height="980" fill="#ffffff"/>
<g stroke-linecap="round" stroke-linejoin="round">
<line x1="628.30" y1="320.30" x2="636.60" y2="332.75" stroke="#111" stroke-width="3.96"/>
<line x1="636.60" y1="332.75" x2="680.51" y2="329.94" stroke="#111" stroke-width="3.96"/>
<line x1="644.75" y1="339.50" x2="673.29" y2="337.68" stroke="#111" stroke-width="3.96"/>
<line x1="680.51" y1="329.94" x2="684.02" y2="322.85" stroke="#111" stroke-width="3.96"/>
<line x1="680.51" y1="329.94" x2="704.90" y2="366.56" stroke="#111" stroke-width="3.96"/>
<line x1="704.90" y1="366.56" x2="685.38" y2="406.00" stroke="#111" stroke-width="3.96"/>
<line x1="694.98" y1="370.24" x2="682.29" y2="395.88" stroke="#111" stroke-width="3.96"/>
<line x1="685.38" y1="406.00" x2="701.46" y2="430.29" stroke="#111" stroke-width="3.96"/>
<line x1="722.31" y1="434.70" x2="746.79" y2="419.01" stroke="#111" stroke-width="3.96"/>
<line x1="746.79" y1="419.01" x2="785.78" y2="439.40" stroke="#111" stroke-width="3.96"/>
<line x1="756.98" y1="416.14" x2="782.32" y2="429.40" stroke="#111" stroke-width="3.96"/>
<line x1="785.78" y1="439.40" x2="822.93" y2="415.84" stroke="#111" stroke-width="3.96"/>
<line x1="822.93" y1="415.84" x2="829.95" y2="419.50" stroke="#111" stroke-width="3.96"/>
<line x1="822.93" y1="415.84" x2="821.10" y2="371.88" stroke="#111" stroke-width="3.96"/>
<line x1="815.36" y1="408.45" x2="814.17" y2="379.87" stroke="#111" stroke-width="3.96"/>
<line x1="821.10" y1="371.88" x2="833.75" y2="363.88" stroke="#111" stroke-width="3.96"/>
<line x1="821.10" y1="371.88" x2="782.12" y2="351.48" stroke="#111" stroke-width="3.96"/>
<line x1="782.12" y1="351.48" x2="781.78" y2="343.57" stroke="#111" stroke-width="3.96"/>
<line x1="782.12" y1="351.48" x2="744.96" y2="375.05" stroke="#111" stroke-width="3.96"/>
<line x1="779.50" y1="361.74" x2="755.35" y2="377.05" stroke="#111" stroke-width="3.96"/>
<line x1="697.27" y1="451.07" x2="671.99" y2="467.92" stroke="#111" stroke-width="3.96"/>
<line x1="671.99" y1="467.92" x2="633.87" y2="446.03" stroke="#111" stroke-width="3.96"/>
<line x1="661.70" y1="470.38" x2="636.93" y2="456.16" stroke="#111" stroke-width="3.96"/>
<line x1="633.87" y1="446.03" x2="595.78" y2="468.00" stroke="#111" stroke-width="3.96"/>
<line x1="595.78" y1="468.00" x2="595.78" y2="512.00" stroke="#111" stroke-width="3.96"/>
<line x1="603.04" y1="475.70" x2="603.04" y2="504.30" stroke="#111" stroke-width="3.96"/>
<line x1="595.78" y1="512.00" x2="633.86" y2="533.97" stroke="#111" stroke-width="3.96"/>
<line x1="633.86" y1="533.97" x2="671.99" y2="512.08" stroke="#111" stroke-width="3.96"/>
<line x1="636.93" y1="523.84" x2="661.70" y2="509.62" stroke="#111" stroke-width="3.96"/>
<line x1="671.99" y1="512.08" x2="697.27" y2="528.92" stroke="#111" stroke-width="3.96"/>
<line x1="722.31" y1="545.29" x2="746.79" y2="560.99" stroke="#111" stroke-width="3.96"/>
<line x1="746.79" y1="560.99" x2="744.96" y2="604.96" stroke="#111" stroke-width="3.96"/>
<line x1="753.72" y1="568.99" x2="752.53" y2="597.56" stroke="#111" stroke-width="3.96"/>
<line x1="744.96" y1="604.96" x2="782.11" y2="628.52" stroke="#111" stroke-width="3.96"/>
<line x1="782.11" y1="628.52" x2="781.78" y2="636.43" stroke="#111" stroke-width="3.96"/>
<line x1="782.11" y1="628.52" x2="821.10" y2="608.12" stroke="#111" stroke-width="3.96"/>
<line x1="785.57" y1="618.52" x2="810.91" y2="605.26" stroke="#111" stroke-width="3.96"/>
<line x1="821.10" y1="608.12" x2="833.74" y2="616.12" stroke="#111" stroke-width="3.96"/>
<line x1="821.10" y1="608.12" x2="822.93" y2="564.16" stroke="#111" stroke-width="3.96"/>
<line x1="822.93" y1="564.16" x2="829.95" y2="560.50" stroke="#111" stroke-width="3.96"/>
<line x1="822.93" y1="564.16" x2="785.78" y2="540.60" stroke="#111" stroke-width="3.96"/>
<line x1="812.54" y1="566.17" x2="788.39" y2="550.85" stroke="#111" stroke-width="3.96"/>
<line x1="701.47" y1="549.69" x2="685.38" y2="574.00" stroke="#111" stroke-width="3.96"/>
<line x1="685.38" y1="574.00" x2="641.47" y2="571.20" stroke="#111" stroke-width="3.96"/>
<line x1="677.24" y1="580.76" x2="648.69" y2="578.93" stroke="#111" stroke-width="3.96"/>
<line x1="641.47" y1="571.20" x2="617.08" y2="607.82" stroke="#111" stroke-width="3.96"/>
<line x1="617.08" y1="607.82" x2="609.17" y2="607.31" stroke="#111" stroke-width="3.96"/>
<line x1="617.08" y1="607.82" x2="636.60" y2="647.25" stroke="#111" stroke-width="3.96"/>
<line x1="627.00" y1="611.50" x2="639.69" y2="637.13" stroke="#111" stroke-width="3.96"/>
<line x1="636.60" y1="647.25" x2="628.30" y2="659.70" stroke="#111" stroke-width="3.96"/>
<line x1="636.60" y1="647.25" x2="680.51" y2="650.06" stroke="#111" stroke-width="3.96"/>
<line x1="680.51" y1="650.06" x2="684.02" y2="657.15" stroke="#111" stroke-width="3.96"/>
<line x1="680.51" y1="650.06" x2="704.90" y2="613.44" stroke="#111" stroke-width="3.96"/>
<line x1="678.74" y1="639.63" x2="694.59" y2="615.82" stroke="#111" stroke-width="3.96"/>
<line x1="685.38" y1="406.00" x2="641.47" y2="408.81" stroke="#111" stroke-width="3.96"/>
<line x1="641.47" y1="408.81" x2="617.08" y2="372.18" stroke="#111" stroke-width="3.96"/>
<line x1="643.25" y1="398.37" x2="627.39" y2="374.57" stroke="#111" stroke-width="3.96"/>
<line x1="617.08" y1="372.18" x2="609.17" y2="372.69" stroke="#111" stroke-width="3.96"/>
<line x1="617.08" y1="372.18" x2="636.60" y2="332.75" stroke="#111" stroke-width="3.96"/>
<line x1="744.96" y1="375.05" x2="746.79" y2="419.01" stroke="#111" stroke-width="3.96"/>
<line x1="671.99" y1="512.08" x2="671.99" y2="467.92" stroke="#111" stroke-width="3.96"/>
<line x1="785.78" y1="540.60" x2="746.79" y2="560.99" stroke="#111" stroke-width="3.96"/>
<line x1="704.90" y1="613.44" x2="685.38" y2="574.00" stroke="#111" stroke-width="3.96"/>
<line x1="762.00" y1="490.00" x2="769.04" y2="490.00" stroke="#111" stroke-width="3.96" stroke-dasharray="7.04,5.72"/>
<line x1="717.79" y1="455.36" x2="728.12" y2="471.48" stroke="#111" stroke-width="3.96" stroke-dasharray="7.04,5.72"/>
<line x1="717.80" y1="524.62" x2="728.12" y2="508.52" stroke="#111" stroke-width="3.96" stroke-dasharray="7.04,5.72"/>
</g>
<text x="612.19" y="296.14" text-anchor="middle" dominant-baseline="central" font-family="Helvetica, Arial, sans-serif" font-size="20.2" font-weight="600" stroke="#ffffff" stroke-width="6.88" fill="#ffffff">OMe</text>
<text x="612.19" y="296.14" text-anchor="middle" dominant-baseline="central" font-family="Helvetica, Arial, sans-serif" font-size="20.2" font-weight="600" fill="#111">OMe</text>
<text x="700.01" y="290.51" text-anchor="middle" dominant-baseline="central" font-family="Helvetica, Arial, sans-serif" font-size="20.2" font-weight="600" stroke="#ffffff" stroke-width="6.88" fill="#ffffff">t-Bu</text>
<text x="700.01" y="290.51" text-anchor="middle" dominant-baseline="central" font-family="Helvetica, Arial, sans-serif" font-size="20.2" font-weight="600" fill="#111">t-Bu</text>
<text x="709.71" y="442.77" text-anchor="middle" dominant-baseline="central" font-family="Helvetica, Arial, sans-serif" font-size="22.0" font-weight="600" stroke="#ffffff" stroke-width="7.48" fill="#ffffff">P</text>
<text x="709.71" y="442.77" text-anchor="middle" dominant-baseline="central" font-family="Helvetica, Arial, sans-serif" font-size="22.0" font-weight="600" fill="#c87a00">P</text>
<text x="861.93" y="436.21" text-anchor="middle" dominant-baseline="central" font-family="Helvetica, Arial, sans-serif" font-size="20.2" font-weight="600" stroke="#ffffff" stroke-width="6.88" fill="#ffffff">t-Bu</text>
<text x="861.93" y="436.21" text-anchor="middle" dominant-baseline="central" font-family="Helvetica, Arial, sans-serif" font-size="20.2" font-weight="600" fill="#111">t-Bu</text>
<text x="858.29" y="348.36" text-anchor="middle" dominant-baseline="central" font-family="Helvetica, Arial, sans-serif" font-size="20.2" font-weight="600" stroke="#ffffff" stroke-width="6.88" fill="#ffffff">OMe</text>
<text x="858.29" y="348.36" text-anchor="middle" dominant-baseline="central" font-family="Helvetica, Arial, sans-serif" font-size="20.2" font-weight="600" fill="#111">OMe</text>
<text x="780.26" y="307.52" text-anchor="middle" dominant-baseline="central" font-family="Helvetica, Arial, sans-serif" font-size="20.2" font-weight="600" stroke="#ffffff" stroke-width="6.88" fill="#ffffff">t-Bu</text>
<text x="780.26" y="307.52" text-anchor="middle" dominant-baseline="central" font-family="Helvetica, Arial, sans-serif" font-size="20.2" font-weight="600" fill="#111">t-Bu</text>
<text x="709.72" y="537.22" text-anchor="middle" dominant-baseline="central" font-family="Helvetica, Arial, sans-serif" font-size="22.0" font-weight="600" stroke="#ffffff" stroke-width="7.48" fill="#ffffff">P</text>
<text x="709.72" y="537.22" text-anchor="middle" dominant-baseline="central" font-family="Helvetica, Arial, sans-serif" font-size="22.0" font-weight="600" fill="#c87a00">P</text>
<text x="780.26" y="672.48" text-anchor="middle" dominant-baseline="central" font-family="Helvetica, Arial, sans-serif" font-size="20.2" font-weight="600" stroke="#ffffff" stroke-width="6.88" fill="#ffffff">t-Bu</text>
<text x="780.26" y="672.48" text-anchor="middle" dominant-baseline="central" font-family="Helvetica, Arial, sans-serif" font-size="20.2" font-weight="600" fill="#111">t-Bu</text>
<text x="858.29" y="631.64" text-anchor="middle" dominant-baseline="central" font-family="Helvetica, Arial, sans-serif" font-size="20.2" font-weight="600" stroke="#ffffff" stroke-width="6.88" fill="#ffffff">OMe</text>
<text x="858.29" y="631.64" text-anchor="middle" dominant-baseline="central" font-family="Helvetica, Arial, sans-serif" font-size="20.2" font-weight="600" fill="#111">OMe</text>
<text x="861.93" y="543.79" text-anchor="middle" dominant-baseline="central" font-family="Helvetica, Arial, sans-serif" font-size="20.2" font-weight="600" stroke="#ffffff" stroke-width="6.88" fill="#ffffff">t-Bu</text>
<text x="861.93" y="543.79" text-anchor="middle" dominant-baseline="central" font-family="Helvetica, Arial, sans-serif" font-size="20.2" font-weight="600" fill="#111">t-Bu</text>
<text x="573.16" y="605.03" text-anchor="middle" dominant-baseline="central" font-family="Helvetica, Arial, sans-serif" font-size="20.2" font-weight="600" stroke="#ffffff" stroke-width="6.88" fill="#ffffff">t-Bu</text>
<text x="573.16" y="605.03" text-anchor="middle" dominant-baseline="central" font-family="Helvetica, Arial, sans-serif" font-size="20.2" font-weight="600" fill="#111">t-Bu</text>
<text x="612.19" y="683.86" text-anchor="middle" dominant-baseline="central" font-family="Helvetica, Arial, sans-serif" font-size="20.2" font-weight="600" stroke="#ffffff" stroke-width="6.88" fill="#ffffff">OMe</text>
<text x="612.19" y="683.86" text-anchor="middle" dominant-baseline="central" font-family="Helvetica, Arial, sans-serif" font-size="20.2" font-weight="600" fill="#111">OMe</text>
<text x="700.01" y="689.50" text-anchor="middle" dominant-baseline="central" font-family="Helvetica, Arial, sans-serif" font-size="20.2" font-weight="600" stroke="#ffffff" stroke-width="6.88" fill="#ffffff">t-Bu</text>
<text x="700.01" y="689.50" text-anchor="middle" dominant-baseline="central" font-family="Helvetica, Arial, sans-serif" font-size="20.2" font-weight="600" fill="#111">t-Bu</text>
<text x="573.16" y="374.97" text-anchor="middle" dominant-baseline="central" font-family="Helvetica, Arial, sans-serif" font-size="20.2" font-weight="600" stroke="#ffffff" stroke-width="6.88" fill="#ffffff">t-Bu</text>
<text x="573.16" y="374.97" text-anchor="middle" dominant-baseline="central" font-family="Helvetica, Arial, sans-serif" font-size="20.2" font-weight="600" fill="#111">t-Bu</text>
<text x="740.00" y="490.00" text-anchor="middle" dominant-baseline="central" font-family="Helvetica, Arial, sans-serif" font-size="22.0" font-weight="600" stroke="#ffffff" stroke-width="7.48" fill="#ffffff">Cu</text>
<text x="740.00" y="490.00" text-anchor="middle" dominant-baseline="central" font-family="Helvetica, Arial, sans-serif" font-size="22.0" font-weight="600" fill="#b05a2a">Cu</text>
<text x="784.00" y="490.00" text-anchor="middle" dominant-baseline="central" font-family="Helvetica, Arial, sans-serif" font-size="22.0" font-weight="600" stroke="#ffffff" stroke-width="7.48" fill="#ffffff">H</text>
<text x="784.00" y="490.00" text-anchor="middle" dominant-baseline="central" font-family="Helvetica, Arial, sans-serif" font-size="22.0" font-weight="600" fill="#111">H</text>
</svg>