<svg xmlns="http://www.w3.org/2000/svg" width="1240" height="1040" viewBox="0 0 1240 1040">
<rect width="1240" height="1040" fill="#ffffff"/>
<g stroke-linecap="round" stroke-linejoin="round">
<line x1="620.00" y1="435.49" x2="654.21" y2="446.78" stroke="#111" stroke-width="3.78"/>
<polygon points="652.67,445.68 637.90,463.28 643.69,467.46 655.74,447.89" fill="#111"/>
<line x1="640.79" y1="465.37" x2="599.21" y2="465.37" stroke="#111" stroke-width="7.18"/>
<polygon points="584.26,447.89 596.31,467.46 602.10,463.28 587.33,445.68" fill="#111"/>
<line x1="585.79" y1="446.78" x2="620.00" y2="435.49" stroke="#111" stroke-width="3.78"/>
<line x1="620.00" y1="571.57" x2="654.28" y2="582.78" stroke="#111" stroke-width="3.78"/>
<polygon points="652.75,581.67 637.79,599.42 643.57,603.62 655.81,583.89" fill="#111"/>
<line x1="640.68" y1="601.52" x2="599.32" y2="601.52" stroke="#111" stroke-width="7.18"/>
<polygon points="584.19,583.89 596.43,603.62 602.21,599.42 587.25,581.67" fill="#111"/>
<line x1="585.72" y1="582.78" x2="620.00" y2="571.57" stroke="#111" stroke-width="3.78"/>
<line x1="620.00" y1="499.00" x2="620.00" y2="452.05" stroke="#111" stroke-width="3.78" stroke-dasharray="6.72,5.46"/>
<line x1="620.00" y1="541.00" x2="620.00" y2="587.88" stroke="#111" stroke-width="3.78" stroke-dasharray="6.72,5.46"/>
</g>
<ellipse cx="620.00" cy="451.96" rx="20.77" ry="9.60" fill="none" stroke="#111" stroke-width="3.78" transform="rotate(-0.0 620.00 451.96)"/>
<ellipse cx="620.00" cy="588.03" rx="20.77" ry="9.64" fill="none" stroke="#111" stroke-width="3.78" transform="rotate(-0.0 620.00 588.03)"/>
<text x="620.00" y="520.00" text-anchor="middle" dominant-baseline="central" font-family="Helvetica, Arial, sans-serif" font-size="21.0" font-weight="600" stroke="#ffffff" stroke-width="7.14" fill="#ffffff">Rh</text>
<text x="620.00" y="520.00" text-anchor="middle" dominant-baseline="central" font-family="Helvetica, Arial, sans-serif" font-size="21.0" font-weight="600" fill="#5a6470">Rh</text>
</svg>