<svg xmlns="http://www.w3.org/2000/svg" width="1240" height="1040" viewBox="0 0 1240 1040">
<rect width="1240" height="1040" fill="#ffffff"/>
<g stroke-linecap="round" stroke-linejoin="round">
<line x1="649.02" y1="567.34" x2="676.49" y2="570.41" stroke="#111" stroke-width="3.78"/>
<line x1="649.02" y1="567.34" x2="637.71" y2="592.47" stroke="#111" stroke-width="3.78"/>
<line x1="693.64" y1="585.97" x2="699.40" y2="613.09" stroke="#111" stroke-width="3.78"/>
<line x1="699.40" y1="613.09" x2="662.68" y2="634.00" stroke="#111" stroke-width="3.78"/>
<line x1="662.68" y1="634.00" x2="642.33" y2="615.19" stroke="#111" stroke-width="3.78"/>
<line x1="720.47" y1="541.75" x2="710.65" y2="500.90" stroke="#111" stroke-width="3.78"/>
<line x1="725.49" y1="532.99" x2="719.11" y2="506.42" stroke="#111" stroke-width="3.78"/>
<line x1="710.65" y1="500.90" x2="741.10" y2="471.98" stroke="#111" stroke-width="3.78"/>
<line x1="741.10" y1="471.98" x2="781.38" y2="483.88" stroke="#111" stroke-width="3.78"/>
<line x1="746.19" y1="480.71" x2="772.36" y2="488.44" stroke="#111" stroke-width="3.78"/>
<line x1="781.38" y1="483.88" x2="791.21" y2="524.71" stroke="#111" stroke-width="3.78"/>
<line x1="791.21" y1="524.71" x2="760.76" y2="553.63" stroke="#111" stroke-width="3.78"/>
<line x1="781.10" y1="524.75" x2="761.32" y2="543.54" stroke="#111" stroke-width="3.78"/>
<line x1="760.76" y1="553.63" x2="720.47" y2="541.75" stroke="#111" stroke-width="3.78"/>
<line x1="700.70" y1="561.83" x2="720.47" y2="541.75" stroke="#111" stroke-width="3.78"/>
<line x1="710.65" y1="500.90" x2="670.90" y2="488.58" stroke="#111" stroke-width="3.78"/>
<line x1="781.38" y1="483.88" x2="811.82" y2="454.95" stroke="#111" stroke-width="3.78"/>
<line x1="760.76" y1="553.63" x2="770.61" y2="594.46" stroke="#111" stroke-width="3.78"/>
<line x1="590.69" y1="613.87" x2="562.86" y2="582.42" stroke="#111" stroke-width="3.78"/>
<line x1="580.63" y1="612.96" x2="562.54" y2="592.52" stroke="#111" stroke-width="3.78"/>
<line x1="562.86" y1="582.42" x2="521.70" y2="590.80" stroke="#111" stroke-width="3.78"/>
<line x1="521.70" y1="590.80" x2="508.38" y2="630.63" stroke="#111" stroke-width="3.78"/>
<line x1="525.94" y1="599.97" x2="517.29" y2="625.86" stroke="#111" stroke-width="3.78"/>
<line x1="508.38" y1="630.63" x2="536.22" y2="662.08" stroke="#111" stroke-width="3.78"/>
<line x1="536.22" y1="662.08" x2="577.37" y2="653.70" stroke="#111" stroke-width="3.78"/>
<line x1="542.04" y1="653.82" x2="568.79" y2="648.38" stroke="#111" stroke-width="3.78"/>
<line x1="577.37" y1="653.70" x2="590.69" y2="613.87" stroke="#111" stroke-width="3.78"/>
<line x1="617.86" y1="608.34" x2="590.69" y2="613.87" stroke="#111" stroke-width="3.78"/>
<line x1="562.86" y1="582.42" x2="576.18" y2="542.59" stroke="#111" stroke-width="3.78"/>
<line x1="508.38" y1="630.63" x2="467.23" y2="639.01" stroke="#111" stroke-width="3.78"/>
<line x1="577.37" y1="653.70" x2="605.21" y2="685.15" stroke="#111" stroke-width="3.78"/>
<line x1="576.88" y1="452.24" x2="616.76" y2="439.12" stroke="#111" stroke-width="3.78"/>
<line x1="581.69" y1="443.36" x2="607.62" y2="434.83" stroke="#111" stroke-width="3.78"/>
<line x1="616.76" y1="439.12" x2="625.40" y2="398.03" stroke="#111" stroke-width="3.78"/>
<line x1="625.40" y1="398.03" x2="594.06" y2="370.03" stroke="#111" stroke-width="3.78"/>
<line x1="615.30" y1="398.30" x2="594.92" y2="380.10" stroke="#111" stroke-width="3.78"/>
<line x1="594.06" y1="370.03" x2="554.16" y2="383.15" stroke="#111" stroke-width="3.78"/>
<line x1="554.16" y1="383.15" x2="545.55" y2="424.28" stroke="#111" stroke-width="3.78"/>
<line x1="559.44" y1="391.76" x2="553.84" y2="418.51" stroke="#111" stroke-width="3.78"/>
<line x1="545.55" y1="424.28" x2="576.88" y2="452.24" stroke="#111" stroke-width="3.78"/>
<line x1="571.09" y1="494.44" x2="576.88" y2="452.24" stroke="#111" stroke-width="3.78"/>
<line x1="601.39" y1="510.27" x2="571.09" y2="494.44" stroke="#111" stroke-width="3.78"/>
<line x1="598.18" y1="516.42" x2="567.88" y2="500.58" stroke="#111" stroke-width="3.78"/>
<line x1="616.76" y1="439.12" x2="635.83" y2="459.25" stroke="#111" stroke-width="3.78"/>
<line x1="659.68" y1="466.93" x2="660.66" y2="466.74" stroke="#111" stroke-width="3.78"/>
<line x1="639.17" y1="482.34" x2="629.53" y2="501.29" stroke="#111" stroke-width="3.78" stroke-dasharray="6.72,5.46"/>
<line x1="641.00" y1="519.78" x2="654.84" y2="519.64" stroke="#111" stroke-width="3.78"/>
<line x1="615.10" y1="540.42" x2="611.96" y2="553.49" stroke="#111" stroke-width="3.78"/>
<line x1="649.02" y1="567.34" x2="630.98" y2="537.90" stroke="#111" stroke-width="3.78" stroke-dasharray="6.72,5.46"/>
</g>
<text x="690.68" y="572.00" text-anchor="middle" dominant-baseline="central" font-family="Helvetica, Arial, sans-serif" font-size="21.0" font-weight="600" stroke="#ffffff" stroke-width="7.14" fill="#ffffff">N</text>
<text x="690.68" y="572.00" text-anchor="middle" dominant-baseline="central" font-family="Helvetica, Arial, sans-serif" font-size="21.0" font-weight="600" fill="#2c3e9e">N</text>
<text x="631.85" y="605.49" text-anchor="middle" dominant-baseline="central" font-family="Helvetica, Arial, sans-serif" font-size="21.0" font-weight="600" stroke="#ffffff" stroke-width="7.14" fill="#ffffff">N</text>
<text x="631.85" y="605.49" text-anchor="middle" dominant-baseline="central" font-family="Helvetica, Arial, sans-serif" font-size="21.0" font-weight="600" fill="#2c3e9e">N</text>
<text x="620.00" y="520.00" text-anchor="middle" dominant-baseline="central" font-family="Helvetica, Arial, sans-serif" font-size="21.0" font-weight="600" stroke="#ffffff" stroke-width="7.14" fill="#ffffff">Ru</text>
<text x="620.00" y="520.00" text-anchor="middle" dominant-baseline="central" font-family="Helvetica, Arial, sans-serif" font-size="21.0" font-weight="600" fill="#5a6470">Ru</text>
<text x="645.65" y="469.61" text-anchor="middle" dominant-baseline="central" font-family="Helvetica, Arial, sans-serif" font-size="21.0" font-weight="600" stroke="#ffffff" stroke-width="7.14" fill="#ffffff">O</text>
<text x="645.65" y="469.61" text-anchor="middle" dominant-baseline="central" font-family="Helvetica, Arial, sans-serif" font-size="21.0" font-weight="600" fill="#c0392b">O</text>
<text x="687.88" y="461.53" text-anchor="middle" dominant-baseline="central" font-family="Helvetica, Arial, sans-serif" font-size="19.3" font-weight="600" stroke="#ffffff" stroke-width="6.57" fill="#ffffff">iPr</text>
<text x="687.88" y="461.53" text-anchor="middle" dominant-baseline="central" font-family="Helvetica, Arial, sans-serif" font-size="19.3" font-weight="600" fill="#111">iPr</text>
<text x="675.84" y="519.43" text-anchor="middle" dominant-baseline="central" font-family="Helvetica, Arial, sans-serif" font-size="21.0" font-weight="600" stroke="#ffffff" stroke-width="7.14" fill="#ffffff">Cl</text>
<text x="675.84" y="519.43" text-anchor="middle" dominant-baseline="central" font-family="Helvetica, Arial, sans-serif" font-size="21.0" font-weight="600" fill="#2e8b57">Cl</text>
<text x="607.06" y="573.91" text-anchor="middle" dominant-baseline="central" font-family="Helvetica, Arial, sans-serif" font-size="21.0" font-weight="600" stroke="#ffffff" stroke-width="7.14" fill="#ffffff">Cl</text>
<text x="607.06" y="573.91" text-anchor="middle" dominant-baseline="central" font-family="Helvetica, Arial, sans-serif" font-size="21.0" font-weight="600" fill="#2e8b57">Cl</text>
</svg>